<?xml version="1.0" encoding="UTF-8"?>
<svg id="Layer_1" xmlns="http://www.w3.org/2000/svg" version="1.1" viewBox="0 0 1000 1000">
  <!-- Generator: Adobe Illustrator 29.1.0, SVG Export Plug-In . SVG Version: 2.1.0 Build 142)  -->
  <defs>
    <style>
      .st0 {
        fill: #70c493;
      }
    </style>
  </defs>
  <polygon class="st0" points="943.89 726.05 870.33 726.05 705.84 536.48 599.87 666.6 541 738.89 541 273.91 601.46 273.91 601.46 582.55 848.1 273.91 919.63 273.91 744 489.6 943.89 726.05"/>
  <path class="st0" d="M509.87,500.03c0,44.06-10.23,83.59-30.41,117.5-20.21,33.96-48.83,60.85-85.07,79.92-36.11,19.01-78.59,28.66-126.25,28.66H83.97l54.22-54.23h127.45c37.44,0,70.31-7.4,97.72-22,27.26-14.54,48.75-34.91,63.87-60.55,15.34-26.04,22.79-55.26,22.79-89.32s-7.66-64.14-22.78-89.61c-15.12-25.44-36.61-45.71-63.88-60.25-27.41-14.6-60.28-22-97.72-22h-127.45l-54.22-54.23h184.16c47.66,0,90.14,9.64,126.25,28.66l2.56,1.39c35.03,18.99,62.78,45.41,82.52,78.55,20.18,33.94,30.41,73.47,30.41,117.51Z"/>
</svg>